<?xml version="1.0" encoding="UTF-8"?> <!-- Generator: Adobe Illustrator 25.4.1, SVG Export Plug-In . SVG Version: 6.00 Build 0) --> <svg xmlns="http://www.w3.org/2000/svg" xmlns:xlink="http://www.w3.org/1999/xlink" version="1.1" id="Layer_1" x="0px" y="0px" viewBox="0 0 100 100" style="enable-background:new 0 0 100 100;" xml:space="preserve"> <style type="text/css"> .st0{fill:url(#SVGID_00000093887424221048659280000009726122903450169522_);} .st1{clip-path:url(#SVGID_00000034083168640047179720000003675229411115702426_);fill:url(#SVGID_00000098219198827104453660000010116984409471327167_);} .st2{clip-path:url(#SVGID_00000067947609479816989860000017149746342898518710_);fill:url(#SVGID_00000122697128094300874150000007985562344426839714_);} .st3{clip-path:url(#SVGID_00000006671665712441890530000014038114889374047140_);fill:url(#SVGID_00000021120565108039716380000003752717553816858506_);} .st4{clip-path:url(#SVGID_00000168099069562602425100000013047413034985657736_);fill:url(#SVGID_00000022533902383834404250000008264749825967284137_);} .st5{clip-path:url(#SVGID_00000168078464852316124460000008542013141916624306_);fill:url(#SVGID_00000098180270242685590140000009312841237605412777_);} .st6{clip-path:url(#SVGID_00000096057593420180280140000008320866953129701277_);fill:url(#SVGID_00000013167050461772622910000008935933170590684349_);} </style> <g> <g> <linearGradient id="SVGID_00000149379665881118079060000016113149001512244103_" gradientUnits="userSpaceOnUse" x1="25.8225" y1="1069.9597" x2="74.5023" y2="985.644" gradientTransform="matrix(1 0 0 1 0 -978)"> <stop offset="0" style="stop-color:#5AC4C3"></stop> <stop offset="6.159990e-02" style="stop-color:#46BDB0"></stop> <stop offset="0.184" style="stop-color:#23B18F"></stop> <stop offset="0.25" style="stop-color:#16AD83"></stop> <stop offset="1" style="stop-color:#037ADE"></stop> </linearGradient> <path id="SVGID_8_" style="fill:url(#SVGID_00000149379665881118079060000016113149001512244103_);" d="M50.2,1.1 C23.4,1.1,1.5,23,1.5,49.8s21.8,48.7,48.7,48.7s48.7-21.9,48.7-48.7S77,1.1,50.2,1.1z M50.2,96.7c-25.9,0-46.9-21-46.9-46.9 s21-46.9,46.9-46.9s46.9,21,46.9,46.9S76.1,96.7,50.2,96.7z"></path> </g> <g> <g> <defs> <path id="SVGID_1_" d="M50.2,1.1C23.4,1.1,1.5,23,1.5,49.8s21.8,48.7,48.7,48.7s48.7-21.9,48.7-48.7S77,1.1,50.2,1.1z M50.2,96.7c-25.9,0-46.9-21-46.9-46.9s21-46.9,46.9-46.9s46.9,21,46.9,46.9S76.1,96.7,50.2,96.7z"></path> </defs> <linearGradient id="SVGID_00000007421808981933089000000001839050420469380237_" gradientUnits="userSpaceOnUse" x1="1.4598" y1="49.7876" x2="98.8598" y2="49.7876"> <stop offset="0" style="stop-color:#5AC4C3"></stop> <stop offset="6.159990e-02" style="stop-color:#46BDB0"></stop> <stop offset="0.184" style="stop-color:#23B18F"></stop> <stop offset="0.25" style="stop-color:#16AD83"></stop> <stop offset="1" style="stop-color:#037ADE"></stop> </linearGradient> <use xlink:href="#SVGID_1_" style="overflow:visible;fill:url(#SVGID_00000007421808981933089000000001839050420469380237_);"></use> <clipPath id="SVGID_00000174583939536163729150000008823332065616365992_"> <use xlink:href="#SVGID_1_" style="overflow:visible;"></use> </clipPath> <linearGradient id="SVGID_00000155837925323615315970000003539646439577683640_" gradientUnits="userSpaceOnUse" x1="-4567.7944" y1="-2231.2859" x2="-4500.4312" y2="-2347.9626" gradientTransform="matrix(4.489700e-11 1 -1 4.489700e-11 -2239.3145 4584.1504)"> <stop offset="0" style="stop-color:#5AC4C3"></stop> <stop offset="6.159990e-02" style="stop-color:#46BDB0"></stop> <stop offset="0.184" style="stop-color:#23B18F"></stop> <stop offset="0.25" style="stop-color:#16AD83"></stop> <stop offset="1" style="stop-color:#037ADE"></stop> </linearGradient> <polygon style="clip-path:url(#SVGID_00000174583939536163729150000008823332065616365992_);fill:url(#SVGID_00000155837925323615315970000003539646439577683640_);" points=" 1,0.8 1,99.3 99.7,99.3 99.7,0.8 "></polygon> </g> </g> </g> <g> <g> <g> <defs> <path id="SVGID_00000173152202035425717400000010566994334169003658_" d="M41.9,46.9c-3.4,0-6.2-2.8-6.2-6.2s2.8-6.2,6.2-6.2 s6.2,2.8,6.2,6.2S45.4,46.9,41.9,46.9z M41.9,36.3c-2.5,0-4.4,2-4.4,4.4s2,4.4,4.4,4.4s4.4-2,4.4-4.4l0,0 C46.4,38.3,44.4,36.3,41.9,36.3L41.9,36.3z"></path> </defs> <linearGradient id="SVGID_00000031925579545261098630000010767311672299451542_" gradientUnits="userSpaceOnUse" x1="35.6598" y1="40.6876" x2="48.0598" y2="40.6876"> <stop offset="0" style="stop-color:#5AC4C3"></stop> <stop offset="6.159990e-02" style="stop-color:#46BDB0"></stop> <stop offset="0.184" style="stop-color:#23B18F"></stop> <stop offset="0.25" style="stop-color:#16AD83"></stop> <stop offset="1" style="stop-color:#037ADE"></stop> </linearGradient> <use xlink:href="#SVGID_00000173152202035425717400000010566994334169003658_" style="overflow:visible;fill:url(#SVGID_00000031925579545261098630000010767311672299451542_);"></use> <clipPath id="SVGID_00000143586571133351151730000001066752366954504844_"> <use xlink:href="#SVGID_00000173152202035425717400000010566994334169003658_" style="overflow:visible;"></use> </clipPath> <linearGradient id="SVGID_00000052101662691654116570000013057043332500163223_" gradientUnits="userSpaceOnUse" x1="-4567.7944" y1="-2231.2859" x2="-4500.4312" y2="-2347.9626" gradientTransform="matrix(4.489700e-11 1 -1 4.489700e-11 -2239.3145 4584.1504)"> <stop offset="0" style="stop-color:#5AC4C3"></stop> <stop offset="6.159990e-02" style="stop-color:#46BDB0"></stop> <stop offset="0.184" style="stop-color:#23B18F"></stop> <stop offset="0.25" style="stop-color:#16AD83"></stop> <stop offset="1" style="stop-color:#037ADE"></stop> </linearGradient> <polygon style="clip-path:url(#SVGID_00000143586571133351151730000001066752366954504844_);fill:url(#SVGID_00000052101662691654116570000013057043332500163223_);" points=" 1,0.8 1,99.3 99.7,99.3 99.7,0.8 "></polygon> </g> </g> </g> <g> <g> <g> <defs> <path id="SVGID_00000096752190506255609170000001099508873621774268_" d="M35.7,54.7c0.7-3.4,4.1-5.6,7.6-4.9 c2.5,0.5,4.4,2.4,4.9,4.9H50c-0.7-4.4-4.9-7.4-9.3-6.7c-3.4,0.6-6.1,3.3-6.7,6.7H35.7z"></path> </defs> <linearGradient id="SVGID_00000156572465437676633830000011521789584086572459_" gradientUnits="userSpaceOnUse" x1="33.9598" y1="51.2869" x2="49.9598" y2="51.2869"> <stop offset="0" style="stop-color:#5AC4C3"></stop> <stop offset="6.159990e-02" style="stop-color:#46BDB0"></stop> <stop offset="0.184" style="stop-color:#23B18F"></stop> <stop offset="0.25" style="stop-color:#16AD83"></stop> <stop offset="1" style="stop-color:#037ADE"></stop> </linearGradient> <use xlink:href="#SVGID_00000096752190506255609170000001099508873621774268_" style="overflow:visible;fill:url(#SVGID_00000156572465437676633830000011521789584086572459_);"></use> <clipPath id="SVGID_00000024689599643622582470000002531761973609041302_"> <use xlink:href="#SVGID_00000096752190506255609170000001099508873621774268_" style="overflow:visible;"></use> </clipPath> <linearGradient id="SVGID_00000110452779999080022250000000155231090423752592_" gradientUnits="userSpaceOnUse" x1="-4567.7944" y1="-2231.2859" x2="-4500.4312" y2="-2347.9626" gradientTransform="matrix(4.489700e-11 1 -1 4.489700e-11 -2239.3145 4584.1504)"> <stop offset="0" style="stop-color:#5AC4C3"></stop> <stop offset="6.159990e-02" style="stop-color:#46BDB0"></stop> <stop offset="0.184" style="stop-color:#23B18F"></stop> <stop offset="0.25" style="stop-color:#16AD83"></stop> <stop offset="1" style="stop-color:#037ADE"></stop> </linearGradient> <polygon style="clip-path:url(#SVGID_00000024689599643622582470000002531761973609041302_);fill:url(#SVGID_00000110452779999080022250000000155231090423752592_);" points=" 1,0.8 1,99.3 99.7,99.3 99.7,0.8 "></polygon> </g> </g> </g> <g> <g> <g> <defs> <path id="SVGID_00000149358288614301968880000003803494599000444351_" d="M58,46.9c-3.4,0-6.2-2.8-6.2-6.2s2.8-6.2,6.2-6.2 s6.2,2.8,6.2,6.2C64.1,44.1,61.4,46.9,58,46.9z M58,36.3c-2.5,0-4.4,2-4.4,4.4s2,4.4,4.4,4.4s4.4-2,4.4-4.4l0,0 C62.4,38.3,60.4,36.3,58,36.3L58,36.3z"></path> </defs> <linearGradient id="SVGID_00000122694277523270079920000008984665297254570884_" gradientUnits="userSpaceOnUse" x1="51.7598" y1="40.6876" x2="64.1598" y2="40.6876"> <stop offset="0" style="stop-color:#5AC4C3"></stop> <stop offset="6.159990e-02" style="stop-color:#46BDB0"></stop> <stop offset="0.184" style="stop-color:#23B18F"></stop> <stop offset="0.25" style="stop-color:#16AD83"></stop> <stop offset="1" style="stop-color:#037ADE"></stop> </linearGradient> <use xlink:href="#SVGID_00000149358288614301968880000003803494599000444351_" style="overflow:visible;fill:url(#SVGID_00000122694277523270079920000008984665297254570884_);"></use> <clipPath id="SVGID_00000018952281395998519200000010355312244179469466_"> <use xlink:href="#SVGID_00000149358288614301968880000003803494599000444351_" style="overflow:visible;"></use> </clipPath> <linearGradient id="SVGID_00000173866450658631784910000017291547844080858016_" gradientUnits="userSpaceOnUse" x1="-4567.7944" y1="-2231.2859" x2="-4500.4312" y2="-2347.9626" gradientTransform="matrix(4.489700e-11 1 -1 4.489700e-11 -2239.3145 4584.1504)"> <stop offset="0" style="stop-color:#5AC4C3"></stop> <stop offset="6.159990e-02" style="stop-color:#46BDB0"></stop> <stop offset="0.184" style="stop-color:#23B18F"></stop> <stop offset="0.25" style="stop-color:#16AD83"></stop> <stop offset="1" style="stop-color:#037ADE"></stop> </linearGradient> <polygon style="clip-path:url(#SVGID_00000018952281395998519200000010355312244179469466_);fill:url(#SVGID_00000173866450658631784910000017291547844080858016_);" points=" 1,0.8 1,99.3 99.7,99.3 99.7,0.8 "></polygon> </g> </g> </g> <g> <g> <g> <defs> <path id="SVGID_00000075867424616134660840000011485577246981352376_" d="M51.7,54.7c0.7-3.4,4.1-5.6,7.6-4.9 c2.5,0.5,4.4,2.4,4.9,4.9H66c-0.7-4.4-4.9-7.4-9.3-6.7c-3.4,0.6-6.1,3.3-6.7,6.7H51.7z"></path> </defs> <linearGradient id="SVGID_00000131366146586536448840000014239773558618214830_" gradientUnits="userSpaceOnUse" x1="49.9598" y1="51.2869" x2="65.9598" y2="51.2869"> <stop offset="0" style="stop-color:#5AC4C3"></stop> <stop offset="6.159990e-02" style="stop-color:#46BDB0"></stop> <stop offset="0.184" style="stop-color:#23B18F"></stop> <stop offset="0.25" style="stop-color:#16AD83"></stop> <stop offset="1" style="stop-color:#037ADE"></stop> </linearGradient> <use xlink:href="#SVGID_00000075867424616134660840000011485577246981352376_" style="overflow:visible;fill:url(#SVGID_00000131366146586536448840000014239773558618214830_);"></use> <clipPath id="SVGID_00000143585910787698903580000003051014997461449866_"> <use xlink:href="#SVGID_00000075867424616134660840000011485577246981352376_" style="overflow:visible;"></use> </clipPath> <linearGradient id="SVGID_00000087397472398422648330000015791543035976243383_" gradientUnits="userSpaceOnUse" x1="-4567.7944" y1="-2231.2859" x2="-4500.4312" y2="-2347.9626" gradientTransform="matrix(4.489700e-11 1 -1 4.489700e-11 -2239.3145 4584.1504)"> <stop offset="0" style="stop-color:#5AC4C3"></stop> <stop offset="6.159990e-02" style="stop-color:#46BDB0"></stop> <stop offset="0.184" style="stop-color:#23B18F"></stop> <stop offset="0.25" style="stop-color:#16AD83"></stop> <stop offset="1" style="stop-color:#037ADE"></stop> </linearGradient> <polygon style="clip-path:url(#SVGID_00000143585910787698903580000003051014997461449866_);fill:url(#SVGID_00000087397472398422648330000015791543035976243383_);" points=" 1,0.8 1,99.3 99.7,99.3 99.7,0.8 "></polygon> </g> </g> </g> <g> <g> <g> <defs> <path id="SVGID_00000066506997280384504010000006860763763525180332_" d="M77.8,30.6v-8H22.1v8H28v25.7h-5.9v8H28v18.5h43.8 V64.3h5.9v-8h-5.9V30.6H77.8z M30,80.8V64.3h39.9v16.5H30z M75.8,58.2v4H24.1v-4H75.8L75.8,58.2z M30,30.6h39.9v25.7H30V30.6z M70.9,28.6H24.1v-4h51.7v4H70.9z"></path> </defs> <linearGradient id="SVGID_00000121959419169910463080000002510563183688925571_" gradientUnits="userSpaceOnUse" x1="22.0598" y1="52.6876" x2="77.7598" y2="52.6876"> <stop offset="0" style="stop-color:#5AC4C3"></stop> <stop offset="6.159990e-02" style="stop-color:#46BDB0"></stop> <stop offset="0.184" style="stop-color:#23B18F"></stop> <stop offset="0.25" style="stop-color:#16AD83"></stop> <stop offset="1" style="stop-color:#037ADE"></stop> </linearGradient> <use xlink:href="#SVGID_00000066506997280384504010000006860763763525180332_" style="overflow:visible;fill:url(#SVGID_00000121959419169910463080000002510563183688925571_);"></use> <clipPath id="SVGID_00000148622747295774686110000010900422929944601279_"> <use xlink:href="#SVGID_00000066506997280384504010000006860763763525180332_" style="overflow:visible;"></use> </clipPath> <linearGradient id="SVGID_00000072960423515310191070000018346535059141332660_" gradientUnits="userSpaceOnUse" x1="-4567.7944" y1="-2231.2859" x2="-4500.4312" y2="-2347.9626" gradientTransform="matrix(4.489700e-11 1 -1 4.489700e-11 -2239.3145 4584.1504)"> <stop offset="0" style="stop-color:#5AC4C3"></stop> <stop offset="6.159990e-02" style="stop-color:#46BDB0"></stop> <stop offset="0.184" style="stop-color:#23B18F"></stop> <stop offset="0.25" style="stop-color:#16AD83"></stop> <stop offset="1" style="stop-color:#037ADE"></stop> </linearGradient> <polygon style="clip-path:url(#SVGID_00000148622747295774686110000010900422929944601279_);fill:url(#SVGID_00000072960423515310191070000018346535059141332660_);" points=" 1,0.8 1,99.3 99.7,99.3 99.7,0.8 "></polygon> </g> </g> </g> </svg> 